<svg width="25" height="25" viewBox="0 0 25 25" fill="none" xmlns="http://www.w3.org/2000/svg">
<g clip-path="url(#clip0_12_106)">
<path d="M24.49 12.1586C24.49 18.786 19.1174 24.1586 12.49 24.1586C5.86257 24.1586 0.48999 18.786 0.48999 12.1586C0.48999 5.53115 5.86257 0.158569 12.49 0.158569C19.1174 0.158569 24.49 5.53115 24.49 12.1586Z" fill="#0067B3"/>
<path fill-rule="evenodd" clip-rule="evenodd" d="M8.5691 19.4746C12.506 21.48 17.3233 19.9142 19.3286 15.9772C21.334 12.0403 19.7682 7.22304 15.8313 5.21764C15.108 4.84923 14.355 4.60135 13.5953 4.46655C16.0647 6.84515 16.8074 10.6454 15.1704 13.8591C13.5334 17.0728 10.0228 18.7065 6.64685 18.1076C7.20262 18.6429 7.84585 19.1062 8.5691 19.4746Z" fill="#FFDF6C"/>
</g>
<defs>
<clipPath id="clip0_12_106">
<rect width="25" height="25" fill="white"/>
</clipPath>
</defs>
</svg>
